<?xml version="1.0" standalone="no"?>
<!DOCTYPE svg PUBLIC "-//W3C//DTD SVG 20010904//EN"
 "http://www.w3.org/TR/2001/REC-SVG-20010904/DTD/svg10.dtd">
<svg version="1.0" xmlns="http://www.w3.org/2000/svg"
 width="232.000000pt" height="232.000000pt" viewBox="0 0 232.000000 232.000000"
 preserveAspectRatio="xMidYMid meet">
<metadata>
Created by potrace 1.11, written by Peter Selinger 2001-2013
</metadata>
<g transform="translate(0.000000,232.000000) scale(0.100000,-0.100000)"
fill="#000000" stroke="none">
<path d="M1759 2143 c-20 -8 -42 -26 -48 -39 -6 -13 -15 -24 -19 -24 -5 0 -9
-8 -9 -17 0 -43 -4 -53 -20 -52 -10 0 -13 3 -7 5 10 4 11 91 1 101 -3 2 -16
-8 -30 -23 -26 -27 -39 -65 -42 -119 -1 -17 -7 -39 -13 -50 -17 -29 -29 -5
-27 51 2 71 -36 54 -48 -22 -3 -17 -10 -41 -16 -53 -7 -11 -9 -21 -5 -21 3 0
0 -8 -7 -17 -8 -9 -9 -14 -2 -10 7 5 9 1 6 -12 -6 -24 -29 -17 -36 10 -3 12
-1 17 6 12 6 -3 2 5 -9 19 -10 14 -23 24 -27 21 -5 -3 -6 -8 -3 -11 3 -3 1
-11 -6 -19 -6 -7 -11 -27 -10 -43 0 -16 -4 -32 -9 -36 -5 -3 -7 -10 -3 -15 11
-18 14 -78 5 -84 -5 -3 -12 -1 -16 5 -3 5 -1 10 4 10 6 0 11 5 11 11 0 5 -4 8
-9 5 -13 -8 -29 36 -26 72 l3 33 -16 -23 c-9 -13 -17 -41 -18 -63 -3 -79 -2
-76 -24 -63 -12 8 -15 15 -8 19 7 4 6 8 -3 11 -20 7 -40 -40 -41 -92 -1 -25
-6 -51 -11 -58 -7 -9 -5 -11 8 -6 12 5 16 4 12 -3 -4 -6 -2 -13 5 -15 8 -3 6
-7 -5 -11 -9 -3 -22 -1 -29 6 -7 7 -26 13 -43 15 -82 7 -131 7 -145 0 -8 -4
-36 -16 -61 -27 -46 -20 -219 -184 -334 -317 -108 -124 -121 -139 -152 -171
-18 -18 -33 -36 -33 -40 0 -4 -14 -22 -30 -40 -17 -18 -30 -37 -30 -42 0 -6
-7 -11 -15 -11 -8 0 -15 -4 -15 -9 0 -5 -6 -16 -13 -23 -6 -7 -18 -25 -26 -40
-8 -15 -19 -25 -24 -21 -6 3 -7 1 -4 -4 6 -10 -17 -43 -65 -94 -10 -11 -18
-21 -18 -23 0 -3 -18 -31 -40 -64 -43 -66 -95 -172 -91 -186 1 -5 -1 -16 -5
-25 -10 -22 -12 -101 -3 -95 4 2 11 -1 16 -8 8 -13 63 -21 63 -9 0 4 11 8 26
9 14 1 34 6 44 12 10 6 30 11 44 12 15 1 26 6 26 11 0 4 5 5 10 2 6 -3 10 -1
10 5 0 6 5 8 10 5 6 -3 10 -2 10 3 0 5 6 9 13 10 22 2 42 7 55 15 6 5 17 5 24
1 6 -4 8 -3 5 3 -7 10 60 49 76 45 4 -1 7 3 7 9 0 10 58 35 73 31 4 -1 7 2 7
8 0 5 7 10 15 10 9 0 18 7 22 16 3 9 13 14 24 11 10 -3 24 2 31 12 12 14 11
15 -5 2 -15 -12 -17 -12 -12 2 9 22 45 30 39 8 -3 -9 1 -6 8 7 11 18 16 20 26
10 11 -11 12 -9 6 6 -6 16 -4 18 9 13 11 -4 17 -1 17 8 0 7 9 17 20 20 11 3
20 11 20 16 0 6 4 8 9 5 5 -3 12 1 15 10 4 9 9 14 12 12 3 -3 19 7 36 23 17
15 36 25 41 22 6 -3 7 -1 4 4 -6 10 32 43 50 44 5 0 12 7 16 15 5 8 12 12 17
9 4 -3 10 2 14 10 3 8 10 15 16 15 5 0 32 16 59 35 50 36 67 44 55 23 -4 -7
-3 -8 4 -4 6 4 9 13 6 20 -3 8 8 23 25 36 17 12 31 18 32 13 0 -4 4 2 10 15
10 27 30 21 24 -8 -2 -12 0 -18 5 -15 4 3 7 13 5 23 -3 20 14 57 22 48 3 -3
17 6 30 20 12 14 23 22 23 19 0 -3 14 8 30 25 17 17 34 29 39 26 5 -3 8 2 7
11 0 9 5 18 13 21 9 3 11 0 6 -8 -5 -9 -4 -11 4 -6 9 6 9 11 0 22 -9 11 -8 14
7 14 11 0 15 4 9 8 -15 11 -17 32 -2 32 8 0 7 4 -3 10 -10 7 -11 10 -2 10 14
0 11 108 -4 132 -5 7 -9 19 -10 26 -2 10 1 11 12 1 12 -10 13 -9 8 7 -4 10 -4
16 1 12 4 -4 14 -3 22 3 13 11 18 1 14 -24 -1 -5 3 -6 8 -2 6 3 8 12 4 20 -6
18 18 20 36 3 10 -11 11 -9 5 6 -5 13 -4 17 3 13 6 -4 17 0 24 9 10 12 10 15
-1 12 -7 -2 -15 3 -17 10 -7 17 12 15 31 -4 12 -12 16 -12 16 -2 0 10 3 9 10
-2 9 -13 11 -13 19 -1 8 13 12 13 28 1 17 -14 17 -14 1 6 -14 16 -15 23 -5 33
10 11 8 11 -12 1 -15 -8 -21 -8 -17 -1 4 6 2 12 -3 12 -26 3 -30 4 -37 11 -3
4 4 5 17 2 21 -5 51 -9 112 -13 12 -1 16 -5 11 -13 -5 -9 -2 -9 9 1 9 7 17 10
17 5 0 -13 98 -16 105 -4 3 6 -2 10 -12 10 -15 0 -16 2 -3 10 8 5 11 10 5 11
-5 0 -19 3 -30 5 -11 3 -33 6 -48 8 -32 4 -44 13 -33 23 4 4 10 3 14 -3 4 -5
14 -9 22 -9 8 1 35 -5 60 -12 54 -15 83 -17 75 -3 -3 6 1 10 9 10 8 0 21 7 30
15 9 10 17 11 21 5 4 -6 12 -7 18 -3 20 12 79 14 71 2 -3 -6 3 -5 15 3 12 7
21 16 21 21 0 4 6 5 13 1 8 -5 9 -4 2 4 -6 6 -20 13 -32 15 -28 4 -42 17 -20
17 25 0 21 28 -5 36 -13 4 -25 6 -27 5 -2 -2 -8 3 -12 11 -5 8 -9 9 -9 2 0
-14 -24 -25 -65 -30 -21 -3 -26 -1 -15 5 8 6 18 7 22 5 4 -3 8 0 8 5 0 6 3 10
8 10 18 -3 32 2 32 12 0 5 -5 7 -12 3 -7 -5 -9 -1 -6 13 3 13 -1 24 -13 32
-15 9 -19 8 -19 -1 0 -9 -3 -8 -10 2 -6 9 -10 10 -10 3 0 -6 -10 -15 -22 -19
-13 -4 -26 -11 -30 -17 -9 -14 -36 -18 -44 -6 -3 5 3 9 13 9 10 0 29 10 43 21
18 15 20 18 5 11 -22 -9 -105 -16 -105 -8 0 3 27 10 60 17 58 11 68 20 52 46
-9 14 -64 13 -74 -2 -5 -6 -8 -5 -8 3 0 7 -5 10 -12 6 -6 -4 -8 -3 -5 3 4 6
20 10 37 9 16 -1 30 1 30 4 0 3 9 6 19 6 11 0 17 -4 15 -8 -7 -10 10 -10 20 0
12 12 30 9 44 -8 11 -13 11 -13 7 1 -4 10 0 16 10 16 8 0 15 -5 15 -11 0 -6 5
-4 10 4 8 13 10 13 10 0 0 -11 3 -11 12 -2 9 9 6 18 -12 37 -18 19 -26 22 -32
13 -4 -8 -8 -8 -8 -2 0 6 -17 10 -40 8 -22 -1 -42 1 -45 5 -2 4 1 8 8 9 7 1
27 3 45 5 18 2 32 -1 32 -7 0 -7 3 -8 8 -1 4 6 18 11 32 12 49 4 57 7 57 20 0
7 -4 13 -9 13 -5 0 -6 5 -2 12 5 8 2 9 -11 4 -17 -6 -18 -5 -3 11 18 21 32 56
19 48 -5 -3 -11 0 -13 6 -2 6 -27 -5 -56 -25 -67 -47 -74 -45 -23 4 43 42 51
60 26 60 -8 0 -15 -4 -15 -10 0 -5 -5 -10 -10 -10 -19 0 -110 -65 -110 -78 0
-17 -26 -43 -33 -35 -4 3 -1 15 5 27 7 11 13 26 14 32 3 18 -30 12 -44 -8 -7
-10 -20 -18 -29 -18 -9 0 -14 -3 -10 -6 6 -6 -17 -35 -66 -85 -15 -15 -27 -32
-27 -36 1 -4 -3 -9 -9 -11 -6 -2 -11 0 -11 4 0 15 51 94 61 94 6 0 7 6 2 13
-4 6 -6 21 -5 32 2 11 -1 16 -5 10 -10 -12 -48 -13 -60 -1 -5 5 -1 7 10 3 9
-4 17 -3 17 2 0 4 6 8 13 8 6 0 20 4 30 8 10 4 17 3 17 -4 0 -6 4 -11 10 -11
5 0 6 7 3 17 -4 10 -2 14 5 9 6 -3 13 -2 17 3 3 5 13 8 23 6 9 -1 23 3 29 10
10 11 8 15 -10 21 -12 5 -25 8 -29 9 -3 0 -9 3 -13 6 -3 4 17 6 44 5 28 -2 49
0 46 2 -3 3 0 11 7 19 6 8 7 13 2 12 -20 -4 -25 2 -12 16 33 37 36 43 27 52
-12 12 -59 5 -59 -9 0 -5 -5 -6 -10 -3 -6 3 -13 -1 -16 -9 -3 -9 -10 -13 -15
-10 -5 3 -9 0 -9 -5 0 -6 -5 -11 -10 -11 -18 0 17 54 49 75 52 34 18 46 -50
18z m-185 -325 c-5 -8 -2 -9 9 -5 10 4 25 10 35 13 16 5 16 5 0 -9 -10 -8 -14
-18 -10 -22 4 -5 -1 -5 -10 -2 -10 4 -18 3 -18 -1 0 -4 -9 -8 -20 -8 -11 0
-20 6 -20 14 0 7 4 11 9 8 5 -3 11 1 15 9 3 8 8 15 11 15 4 0 3 -5 -1 -12z
m-4 -103 c-6 -7 -9 -18 -8 -25 2 -7 -4 -15 -12 -17 -13 -4 -13 -3 0 6 13 9 12
11 -5 12 -11 0 -15 3 -8 5 7 3 9 12 6 20 -4 10 0 12 13 7 13 -5 15 -3 9 7 -5
9 -4 11 4 6 9 -6 9 -11 1 -21z m-264 -65 c1 -6 2 -11 4 -12 1 -2 3 -10 5 -19
2 -11 -3 -16 -14 -14 -9 1 -15 10 -15 19 1 8 -2 13 -7 10 -5 -3 -7 5 -5 18 3
13 5 25 5 28 1 7 26 -20 27 -30z m394 -12 c-11 -12 -23 -18 -27 -15 -3 4 -1 7
6 7 8 0 11 6 7 16 -3 8 -2 12 4 9 6 -3 10 -1 10 5 0 6 4 8 10 5 6 -4 2 -15
-10 -27z m-210 6 c0 -8 -19 -13 -24 -6 -3 5 1 9 9 9 8 0 15 -2 15 -3z m326
-16 c4 -7 3 -8 -5 -4 -6 4 -20 2 -29 -6 -15 -12 -16 -11 -3 5 16 20 27 22 37
5z m-206 -22 c0 -2 -7 -7 -16 -10 -8 -3 -12 -2 -9 4 6 10 25 14 25 6z m-174
-18 c4 -6 3 -8 -4 -4 -6 3 -13 2 -17 -4 -3 -5 -11 -10 -18 -10 -6 0 -2 7 9 15
23 18 21 17 30 3z m134 -43 c0 -2 -10 -9 -22 -15 -22 -11 -22 -10 -4 4 21 17
26 19 26 11z m340 -25 c0 -5 8 -7 18 -3 14 5 15 3 5 -7 -9 -10 -15 -10 -26 -2
-8 7 -18 8 -22 4 -5 -4 -5 -1 -1 6 8 14 26 16 26 2z m-370 -106 c0 -3 -15 -4
-34 -2 -19 1 -33 5 -31 8 4 7 65 1 65 -6z m-83 0 c-3 -3 -12 -4 -19 -1 -8 3
-5 6 6 6 11 1 17 -2 13 -5z"/>
<path d="M1766 1922 c-3 -5 1 -9 9 -9 8 0 12 4 9 9 -3 4 -7 8 -9 8 -2 0 -6 -4
-9 -8z"/>
<path d="M1715 1879 c-3 -4 2 -6 10 -5 21 3 28 13 10 13 -9 0 -18 -4 -20 -8z"/>
<path d="M1907 1729 c7 -7 15 -10 18 -7 3 3 -2 9 -12 12 -14 6 -15 5 -6 -5z"/>
<path d="M1680 1446 c0 -2 8 -10 18 -17 15 -13 16 -12 3 4 -13 16 -21 21 -21
13z"/>
<path d="M1366 1018 c3 -5 10 -6 15 -3 13 9 11 12 -6 12 -8 0 -12 -4 -9 -9z"/>
<path d="M1113 813 c0 -9 4 -10 14 -2 7 6 13 12 13 14 0 1 -6 2 -13 2 -8 0
-14 -6 -14 -14z"/>
<path d="M1010 739 c0 -5 5 -7 10 -4 6 3 10 8 10 11 0 2 -4 4 -10 4 -5 0 -10
-5 -10 -11z"/>
<path d="M900 660 c-12 -7 -10 -9 7 -7 12 0 19 5 17 9 -6 10 -6 10 -24 -2z"/>
<path d="M846 602 c-3 -5 1 -9 9 -9 8 0 12 4 9 9 -3 4 -7 8 -9 8 -2 0 -6 -4
-9 -8z"/>
<path d="M793 585 c0 -8 4 -12 9 -9 5 3 6 10 3 15 -9 13 -12 11 -12 -6z"/>
<path d="M550 449 c0 -5 5 -7 10 -4 6 3 10 8 10 11 0 2 -4 4 -10 4 -5 0 -10
-5 -10 -11z"/>
<path d="M340 340 c-12 -7 -10 -9 7 -7 12 0 19 5 17 9 -6 10 -6 10 -24 -2z"/>
<path d="M255 311 c-3 -5 -2 -12 3 -15 5 -3 9 1 9 9 0 17 -3 19 -12 6z"/>
<path d="M196 287 c3 -10 9 -15 12 -12 3 3 0 11 -7 18 -10 9 -11 8 -5 -6z"/>
</g>
</svg>
